<?xml version="1.0" encoding="UTF-8" standalone="no"?>
<svg
   width="139.98001"
   zoomAndPan="magnify"
   viewBox="0 0 104.92901 108.38842"
   height="144.5179"
   preserveAspectRatio="xMidYMid"
   version="1.0"
   id="svg161"
   sodipodi:docname="icon.svg"
   inkscape:version="1.2.2 (b0a84865, 2022-12-01)"
   xmlns:inkscape="http://www.inkscape.org/namespaces/inkscape"
   xmlns:sodipodi="http://sodipodi.sourceforge.net/DTD/sodipodi-0.dtd"
   xmlns="http://www.w3.org/2000/svg"
   xmlns:svg="http://www.w3.org/2000/svg">
  <sodipodi:namedview
     id="namedview163"
     pagecolor="#ffffff"
     bordercolor="#666666"
     borderopacity="1.0"
     inkscape:showpageshadow="2"
     inkscape:pageopacity="0.0"
     inkscape:pagecheckerboard="0"
     inkscape:deskcolor="#d1d1d1"
     showgrid="false"
     inkscape:zoom="1.18"
     inkscape:cx="-127.9661"
     inkscape:cy="60.169492"
     inkscape:window-width="1440"
     inkscape:window-height="760"
     inkscape:window-x="0"
     inkscape:window-y="0"
     inkscape:window-maximized="0"
     inkscape:current-layer="svg161" />
  <defs
     id="defs29">
    <g
       id="g9" />
    <clipPath
       id="32cb6d9d34">
      <path
         d="m 113.19141,66.761719 h 8.23828 V 75 h -8.23828 z m 0,0"
         clip-rule="nonzero"
         id="path11" />
    </clipPath>
    <clipPath
       id="cd26bb5a48">
      <path
         d="m 117.30859,66.761719 c -2.27343,0 -4.11718,1.84375 -4.11718,4.117187 0,2.277344 1.84375,4.121094 4.11718,4.121094 2.27344,0 4.1211,-1.84375 4.1211,-4.121094 0,-2.273437 -1.84766,-4.117187 -4.1211,-4.117187"
         clip-rule="nonzero"
         id="path14" />
    </clipPath>
    <clipPath
       id="8b538143c5">
      <path
         d="M 36,31 H 138 V 141 H 36 Z m 0,0"
         clip-rule="nonzero"
         id="path17" />
    </clipPath>
    <clipPath
       id="2e2d80886b">
      <path
         d="M 70.132812,11.222656 164.72656,66.261719 109.6875,160.85547 15.09375,105.81641 Z m 0,0"
         clip-rule="nonzero"
         id="path20" />
    </clipPath>
    <clipPath
       id="e6ba5b5ce2">
      <path
         d="M 70.132812,11.222656 164.72656,66.261719 109.6875,160.85547 15.09375,105.81641 Z m 0,0"
         clip-rule="nonzero"
         id="path23" />
    </clipPath>
    <clipPath
       id="c4b0b848e4">
      <path
         d="M 70.132812,11.222656 164.72656,66.261719 109.6875,160.85547 15.09375,105.81641 Z m 0,0"
         clip-rule="nonzero"
         id="path26" />
    </clipPath>
  </defs>
  <g
     clip-path="url(#32cb6d9d34)"
     id="g35"
     transform="translate(-36.493421,-31.653568)">
    <g
       clip-path="url(#cd26bb5a48)"
       id="g33">
      <path
         fill="#ff0000"
         d="m 113.19141,66.761719 h 8.23828 V 75 h -8.23828 z m 0,0"
         fill-opacity="1"
         fill-rule="nonzero"
         id="path31" />
    </g>
  </g>
  <g
     clip-path="url(#8b538143c5)"
     id="g45"
     transform="translate(-36.493421,-31.653568)">
    <g
       clip-path="url(#2e2d80886b)"
       id="g43">
      <g
         clip-path="url(#e6ba5b5ce2)"
         id="g41">
        <g
           clip-path="url(#c4b0b848e4)"
           id="g39">
          <path
             fill="#61b33a"
             d="m 137.46875,113.10156 c -5.38672,9.26563 -13.40625,16.72266 -23.03516,21.4336 -9.6289,4.70703 -20.437496,6.45312 -31.05859,5.01953 C 72.75,138.11719 62.792969,133.56641 54.757812,126.47266 46.722656,119.37891 40.972656,110.05859 38.234375,99.695312 35.492188,89.335938 35.890625,78.390625 39.367188,68.253906 42.847656,58.117188 49.257812,49.238281 57.78125,42.742188 c 8.527344,-6.5 18.789062,-10.320313 29.484375,-10.984376 10.699219,-0.664062 21.355465,1.855469 30.617185,7.246094 l -27.253904,46.84375 z m 0,0"
             fill-opacity="1"
             fill-rule="nonzero"
             id="path37" />
        </g>
      </g>
    </g>
  </g>
  <path
     stroke-linecap="butt"
     fill="none"
     stroke-linejoin="miter"
     d="m 7.237049,40.93237 v 25.96094 h 3.746094 V 48.75659 L 23.5183,66.89331 h 2.968751 V 40.93237 H 22.776112 V 59.213622 L 10.13158,40.93237 Z m 22.13672,25.96094 h 3.746095 V 48.612059 l 6.792969,10.085938 h 2.109375 L 48.815177,48.612059 V 66.89331 h 3.703126 V 40.93237 H 49.545646 L 40.979239,53.53784 32.416738,40.93237 H 29.373769 Z M 64.674554,40.705808 H 55.365959 V 66.89331 h 9.308595 c 8.492187,0 12.757813,-6.457031 12.757813,-12.94922 0,-6.480469 -4.265626,-13.238282 -12.757813,-13.238282 z m 0,22.441408 H 59.115959 V 44.455808 h 5.558595 c 6.011719,0 9.054688,4.898438 9.054688,9.488282 0,4.601563 -3.042969,9.203126 -9.054688,9.203126 z M 83.10034,46.826902 v -4.445313 l -3.632816,0.699219 v 3.746094 h -3.003907 v 2.898438 h 3.003907 v 11.273438 c 0,4.671876 2.5625,6.003907 6.492188,6.003907 0.519533,0 1.078127,-0.03516 1.667965,-0.07031 v -3.042969 c -0.550776,0.03516 -1.07812,0.07031 -1.519529,0.07031 -1.812496,0 -3.007808,-0.550781 -3.007808,-2.925781 V 49.72534 h 4.417963 v -2.898438 z m 6.523432,-0.296875 h -3.773434 v 0.296875 l 6.816405,9.789063 -6.671875,10.097657 v 0.218751 h 3.785158 l 4.851561,-7.562501 4.902346,7.562501 h 3.855467 v -0.109375 l -6.792969,-10.207033 6.937499,-9.96875 v -0.117188 h -3.894528 l -5.007815,7.19922 z m 0,0"
     stroke="#ffffff"
     stroke-width="2.78213"
     stroke-opacity="1"
     stroke-miterlimit="4"
     id="path47" />
  <g
     fill="#000000"
     fill-opacity="1"
     id="g55"
     transform="translate(-36.493421,-31.653568)">
    <g
       transform="translate(40.541687,98.547846)"
       id="g53">
      <g
         id="g51">
        <path
           d="M 3.191406,-25.964844 V 0 H 6.9375 V -18.136719 L 19.472656,0 h 2.96875 V -25.964844 H 18.730469 V -7.675781 L 6.082031,-25.964844 Z m 0,0"
           id="path49" />
      </g>
    </g>
  </g>
  <g
     fill="#000000"
     fill-opacity="1"
     id="g63"
     transform="translate(-36.493421,-31.653568)">
    <g
       transform="translate(62.678247,98.547846)"
       id="g61">
      <g
         id="g59">
        <path
           d="M 3.191406,0 H 6.9375 v -18.285156 l 6.785156,10.089844 h 2.113282 L 22.625,-18.285156 V 0 h 3.710938 v -25.964844 h -2.96875 L 14.800781,-13.351562 6.230469,-25.964844 H 3.191406 Z m 0,0"
           id="path57" />
      </g>
    </g>
  </g>
  <g
     fill="#000000"
     fill-opacity="1"
     id="g71"
     transform="translate(-36.493421,-31.653568)">
    <g
       transform="translate(88.671319,98.547846)"
       id="g69">
      <g
         id="g67">
        <path
           d="M 12.5,-26.1875 H 3.191406 V 0 H 12.5 c 8.492188,0 12.757812,-6.453125 12.757812,-12.945312 0,-6.488282 -4.265624,-13.242188 -12.757812,-13.242188 z m 0,22.441406 H 6.9375 V -22.441406 H 12.5 c 6.007812,0 9.050781,4.898437 9.050781,9.496094 0,4.601562 -3.042969,9.199218 -9.050781,9.199218 z m 0,0"
           id="path65" />
      </g>
    </g>
  </g>
  <g
     fill="#000000"
     fill-opacity="1"
     id="g79"
     transform="translate(-36.493421,-31.653568)">
    <g
       transform="translate(112.06866,98.547846)"
       id="g77">
      <g
         id="g75">
        <path
           d="m 7.53125,-20.066406 v -4.449219 L 3.894531,-23.8125 v 3.746094 H 0.890625 v 2.894531 h 3.003906 v 11.273437 c 0,4.675782 2.558594,6.007813 6.492188,6.007813 0.519531,0 1.074219,-0.0351562 1.667969,-0.0742188 V -3.003906 c -0.558594,0.035156 -1.074219,0.074218 -1.519532,0.074218 -1.820312,0 -3.003906,-0.558593 -3.003906,-2.929687 v -11.3125 h 4.410156 v -2.894531 z m 0,0"
           id="path73" />
      </g>
    </g>
  </g>
  <g
     fill="#000000"
     fill-opacity="1"
     id="g87"
     transform="translate(-36.493421,-31.653568)">
    <g
       transform="translate(121.33786,98.547846)"
       id="g85">
      <g
         id="g83">
        <path
           d="M 4.785156,-20.363281 H 1 v 0.296875 l 6.824219,9.792968 -6.675781,10.089844 V 0.0351562 H 4.933594 L 9.792969,-7.53125 14.6875,0.0351562 h 3.859375 v -0.109375 L 11.757812,-10.273438 18.695312,-20.25 v -0.113281 h -3.894531 l -5.007812,7.195312 z m 0,0"
           id="path81" />
      </g>
    </g>
  </g>
  <g
     fill="#000000"
     fill-opacity="1"
     id="g93"
     transform="translate(-36.493421,-31.653568)">
    <g
       transform="translate(137.39234,98.547846)"
       id="g91">
      <g
         id="g89" />
    </g>
  </g>
  <path
     stroke-linecap="butt"
     fill="none"
     stroke-linejoin="miter"
     d="m 17.889392,69.975338 h -2.382813 v 6.707032 h 2.382813 c 2.175781,0 3.265625,-1.652344 3.265625,-3.316407 0,-1.660156 -1.089844,-3.390625 -3.265625,-3.390625 z m 0,5.746094 h -1.421875 v -4.785156 h 1.421875 c 1.539063,0 2.320313,1.253906 2.320313,2.429687 0,1.179688 -0.78125,2.355469 -2.320313,2.355469 z m 9.726564,0.960938 v -5.140625 h -0.929688 l 0.01172,0.687499 c -0.457029,-0.617186 -1.22656,-0.769531 -1.863279,-0.769531 -1.738281,0 -2.746094,1.242188 -2.746094,2.628907 0,1.414062 0.96875,2.679688 2.765625,2.679688 0.636719,-0.01172 1.460938,-0.218751 1.832032,-0.781251 v 0.695313 z m -0.929688,-2.574219 c 0,1.234375 -0.996094,1.835938 -1.851563,1.835938 -1.136719,0 -1.8125,-0.886719 -1.8125,-1.855469 0,-1.015625 0.683594,-1.816406 1.8125,-1.816406 0.875001,0 1.851563,0.613281 1.851563,1.835937 z m 3.46875,-2.566406 v -1.136719 l -0.929688,0.179687 v 0.957032 h -0.769531 v 0.742187 h 0.769531 v 2.88672 c 0,1.199218 0.65625,1.539062 1.664064,1.539062 0.128905,0 0.273436,-0.0078 0.425781,-0.01954 v -0.777343 c -0.140625,0.0078 -0.277344,0.01953 -0.390625,0.01953 -0.464844,0 -0.769532,-0.144531 -0.769532,-0.75 v -2.898438 h 1.132813 v -0.742187 z m 7.386719,5.140625 V 71.541745 H 36.61205 l 0.0078,0.687499 c -0.457031,-0.617186 -1.226563,-0.769531 -1.859375,-0.769531 -1.742188,0 -2.746094,1.242188 -2.746094,2.628907 0,1.414062 0.96875,2.679688 2.761719,2.679688 0.640625,-0.01172 1.464843,-0.218751 1.835937,-0.781251 V 76.68237 Z M 36.61205,74.108151 c 0,1.234375 -0.996094,1.835938 -1.851562,1.835938 -1.140625,0 -1.816407,-0.886719 -1.816407,-1.855469 0,-1.015625 0.683594,-1.816406 1.816407,-1.816406 0.871093,0 1.851562,0.613281 1.851562,1.835937 z m 3.210938,-1.898437 v -2.175782 h -0.933594 v 6.648438 h 0.933594 v -0.695313 c 0.371094,0.5625 1.074218,0.769532 1.710938,0.781251 1.792969,0 2.656249,-1.265626 2.656249,-2.679688 0,-1.386719 -0.898437,-2.628907 -2.640625,-2.628907 -0.632812,0 -1.28125,0.140625 -1.726562,0.750001 z m 0,1.898437 c 0,-1.222656 0.867187,-1.835937 1.726562,-1.835937 1.140625,0 1.710938,0.914062 1.710938,1.835937 0,0.929688 -0.578125,1.835938 -1.71875,1.835938 -0.851563,0 -1.71875,-0.601563 -1.71875,-1.835938 z m 10.839845,2.574219 v -5.140625 h -0.929688 l 0.0078,0.687499 c -0.457031,-0.617186 -1.226562,-0.769531 -1.863282,-0.769531 -1.738281,0 -2.742187,1.242188 -2.742187,2.628907 0,1.414062 0.96875,2.679688 2.761719,2.679688 0.636718,-0.01172 1.464843,-0.218751 1.835937,-0.781251 v 0.695313 z m -0.929688,-2.574219 c 0,1.234375 -1,1.835938 -1.855469,1.835938 -1.136719,0 -1.8125,-0.886719 -1.8125,-1.855469 0,-1.015625 0.683594,-1.816406 1.8125,-1.816406 0.875,0 1.855469,0.613281 1.855469,1.835937 z m 2.898438,-1.082032 c 0,-0.531249 0.53125,-0.753905 1.101562,-0.753905 0.558594,0 1.042969,0.222656 1.089844,0.675781 h 0.921875 c -0.06641,-1.074219 -0.96875,-1.507812 -1.984375,-1.507812 -0.996094,0 -2.050782,0.417968 -2.050782,1.605468 0,1.148437 1.089845,1.433594 2.011719,1.468751 0.445313,0.01953 1.246094,0.117187 1.246094,0.687499 0,0.605469 -0.730469,0.757813 -1.199218,0.757813 -0.632813,0 -1.167969,-0.285157 -1.203126,-0.855469 h -0.929687 c 0.0625,1.214844 1.050781,1.664063 2.117187,1.664063 0.96875,0 2.144532,-0.351563 2.144532,-1.550782 0,-1.167969 -1.101563,-1.472656 -2.070313,-1.535156 -0.457031,-0.03125 -1.195312,-0.01172 -1.195312,-0.656251 z m 9.339844,0.863282 c -0.105469,-1.617187 -1.359375,-2.421875 -2.628906,-2.421875 -1.359375,0 -2.671875,0.882813 -2.671875,2.648438 0,1.769531 1.328124,2.660156 2.648437,2.660156 1.054688,0 2.109375,-0.558594 2.500001,-1.679688 h -0.960938 c -0.300782,0.578125 -0.890625,0.855469 -1.527344,0.855469 -0.769532,0 -1.730469,-0.609375 -1.730469,-1.617188 h 4.351563 c 0.01953,-0.08594 0.02735,-0.179687 0.02735,-0.285156 0,-0.05469 0,-0.105468 -0.0078,-0.160156 z m -0.980468,-0.320313 h -3.351563 c 0.187499,-0.914062 0.949218,-1.285156 1.703125,-1.285156 0.738281,0 1.468749,0.359375 1.648438,1.285156 z m 0,0"
     stroke="#ffffff"
     stroke-width="0.71274"
     stroke-opacity="1"
     stroke-miterlimit="4"
     id="path95" />
  <g
     fill="#000000"
     fill-opacity="1"
     id="g103"
     transform="translate(-36.493421,-31.653568)">
    <g
       transform="translate(51.183408,108.33541)"
       id="g101">
      <g
         id="g99">
        <path
           d="M 3.199219,-6.707031 H 0.816406 V 0 H 3.199219 C 5.375,0 6.46875,-1.652344 6.46875,-3.316406 c 0,-1.660156 -1.09375,-3.390625 -3.269531,-3.390625 z m 0,5.746093 H 1.777344 v -4.785156 h 1.421875 c 1.539062,0 2.320312,1.253906 2.320312,2.429688 0,1.179687 -0.78125,2.355468 -2.320312,2.355468 z m 0,0"
           id="path97" />
      </g>
    </g>
  </g>
  <g
     fill="#000000"
     fill-opacity="1"
     id="g111"
     transform="translate(-36.493421,-31.653568)">
    <g
       transform="translate(58.06155,108.33541)"
       id="g109">
      <g
         id="g107">
        <path
           d="M 6.050781,0 V -5.136719 H 5.117188 l 0.011718,0.683594 C 4.671875,-5.070312 3.902344,-5.222656 3.265625,-5.222656 c -1.738281,0 -2.742187,1.242187 -2.742187,2.628906 0,1.417969 0.96875,2.6796875 2.761718,2.6796875 C 3.921875,0.0742188 4.75,-0.132812 5.117188,-0.691406 V 0 Z M 5.117188,-2.574219 c 0,1.234375 -0.996094,1.832031 -1.851563,1.832031 -1.136719,0 -1.8125,-0.882812 -1.8125,-1.851562 0,-1.015625 0.683594,-1.8125 1.8125,-1.8125 0.875,0 1.851563,0.605469 1.851563,1.832031 z m 0,0"
           id="path105" />
      </g>
    </g>
  </g>
  <g
     fill="#000000"
     fill-opacity="1"
     id="g119"
     transform="translate(-36.493421,-31.653568)">
    <g
       transform="translate(64.72149,108.33541)"
       id="g117">
      <g
         id="g115">
        <path
           d="m 1.929688,-5.136719 v -1.140625 l -0.933594,0.179688 v 0.960937 H 0.226562 v 0.738281 h 0.769532 v 2.886719 c 0,1.199219 0.65625,1.5390628 1.664062,1.5390628 0.132813,0 0.273438,-0.0078126 0.425782,-0.0195313 V -0.769531 C 2.945312,-0.761719 2.8125,-0.75 2.699219,-0.75 2.230469,-0.75 1.929688,-0.894531 1.929688,-1.5 v -2.898438 h 1.128906 v -0.738281 z m 0,0"
           id="path113" />
      </g>
    </g>
  </g>
  <g
     fill="#000000"
     fill-opacity="1"
     id="g127"
     transform="translate(-36.493421,-31.653568)">
    <g
       transform="translate(67.985056,108.33541)"
       id="g125">
      <g
         id="g123">
        <path
           d="M 6.050781,0 V -5.136719 H 5.117188 l 0.011718,0.683594 C 4.671875,-5.070312 3.902344,-5.222656 3.265625,-5.222656 c -1.738281,0 -2.742187,1.242187 -2.742187,2.628906 0,1.417969 0.96875,2.6796875 2.761718,2.6796875 C 3.921875,0.0742188 4.75,-0.132812 5.117188,-0.691406 V 0 Z M 5.117188,-2.574219 c 0,1.234375 -0.996094,1.832031 -1.851563,1.832031 -1.136719,0 -1.8125,-0.882812 -1.8125,-1.851562 0,-1.015625 0.683594,-1.8125 1.8125,-1.8125 0.875,0 1.851563,0.605469 1.851563,1.832031 z m 0,0"
           id="path121" />
      </g>
    </g>
  </g>
  <g
     fill="#000000"
     fill-opacity="1"
     id="g135"
     transform="translate(-36.493421,-31.653568)">
    <g
       transform="translate(74.644996,108.33541)"
       id="g133">
      <g
         id="g131">
        <path
           d="M 1.671875,-4.472656 V -6.648438 H 0.742188 V 0 h 0.929687 v -0.691406 c 0.371094,0.558594 1.074219,0.7656248 1.710937,0.7773435 1.792969,0 2.65625,-1.2617185 2.65625,-2.6796875 0,-1.386719 -0.902343,-2.628906 -2.640624,-2.628906 -0.632813,0 -1.28125,0.140625 -1.726563,0.75 z m 0,1.898437 c 0,-1.226562 0.863281,-1.832031 1.726563,-1.832031 1.140624,0 1.710937,0.910156 1.710937,1.832031 0,0.929688 -0.578125,1.832031 -1.71875,1.832031 -0.855469,0 -1.71875,-0.597656 -1.71875,-1.832031 z m 0,0"
           id="path129" />
      </g>
    </g>
  </g>
  <g
     fill="#000000"
     fill-opacity="1"
     id="g143"
     transform="translate(-36.493421,-31.653568)">
    <g
       transform="translate(81.105709,108.33541)"
       id="g141">
      <g
         id="g139">
        <path
           d="M 6.050781,0 V -5.136719 H 5.117188 l 0.011718,0.683594 C 4.671875,-5.070312 3.902344,-5.222656 3.265625,-5.222656 c -1.738281,0 -2.742187,1.242187 -2.742187,2.628906 0,1.417969 0.96875,2.6796875 2.761718,2.6796875 C 3.921875,0.0742188 4.75,-0.132812 5.117188,-0.691406 V 0 Z M 5.117188,-2.574219 c 0,1.234375 -0.996094,1.832031 -1.851563,1.832031 -1.136719,0 -1.8125,-0.882812 -1.8125,-1.851562 0,-1.015625 0.683594,-1.8125 1.8125,-1.8125 0.875,0 1.851563,0.605469 1.851563,1.832031 z m 0,0"
           id="path137" />
      </g>
    </g>
  </g>
  <g
     fill="#000000"
     fill-opacity="1"
     id="g151"
     transform="translate(-36.493421,-31.653568)">
    <g
       transform="translate(87.765649,108.33541)"
       id="g149">
      <g
         id="g147">
        <path
           d="m 1.359375,-3.65625 c 0,-0.53125 0.53125,-0.75 1.101563,-0.75 0.558593,0 1.042968,0.21875 1.089843,0.671875 H 4.472656 C 4.40625,-4.804688 3.503906,-5.242188 2.488281,-5.242188 c -0.996093,0 -2.050781,0.417969 -2.050781,1.605469 0,1.148438 1.089844,1.433594 2.011719,1.472657 0.449219,0.019531 1.246093,0.113281 1.246093,0.683593 0,0.605469 -0.730468,0.757813 -1.199218,0.757813 -0.632813,0 -1.167969,-0.285156 -1.203125,-0.855469 H 0.359375 c 0.066406,1.21875 1.054687,1.6640625 2.121094,1.6640625 0.96875,0 2.144531,-0.3515625 2.144531,-1.5468755 C 4.625,-2.628906 3.523438,-2.933594 2.554688,-3 2.097656,-3.03125 1.359375,-3.011719 1.359375,-3.65625 Z m 0,0"
           id="path145" />
      </g>
    </g>
  </g>
  <g
     fill="#000000"
     fill-opacity="1"
     id="g159"
     transform="translate(-36.493421,-31.653568)">
    <g
       transform="translate(92.708426,108.33541)"
       id="g157">
      <g
         id="g155">
        <path
           d="M 5.753906,-2.792969 C 5.652344,-4.40625 4.398438,-5.214844 3.125,-5.214844 c -1.359375,0 -2.667969,0.882813 -2.667969,2.652344 0,1.765625 1.328125,2.65625 2.648438,2.65625 1.054687,0 2.109375,-0.558594 2.496093,-1.679688 H 4.644531 C 4.339844,-1.007812 3.75,-0.730469 3.113281,-0.730469 c -0.765625,0 -1.726562,-0.609375 -1.726562,-1.617187 h 4.351562 c 0.015625,-0.082032 0.027344,-0.179688 0.027344,-0.28125 0,-0.058594 0,-0.105469 -0.011719,-0.164063 z M 4.777344,-3.113281 H 1.425781 C 1.613281,-4.027344 2.375,-4.398438 3.125,-4.398438 c 0.742188,0 1.472656,0.363282 1.652344,1.285157 z m 0,0"
           id="path153" />
      </g>
    </g>
  </g>
</svg>
