<svg xmlns="http://www.w3.org/2000/svg" xmlns:xlink="http://www.w3.org/1999/xlink" width="300" zoomAndPan="magnify" viewBox="0 0 224.87999 149.999998" height="200" preserveAspectRatio="xMidYMid meet" version="1.0"><defs><g/><clipPath id="5f4feb6fa7"><path d="M 121.21875 66.761719 L 129.457031 66.761719 L 129.457031 75 L 121.21875 75 Z M 121.21875 66.761719 " clip-rule="nonzero"/></clipPath><clipPath id="89bae83e8b"><path d="M 125.335938 66.761719 C 123.0625 66.761719 121.21875 68.605469 121.21875 70.878906 C 121.21875 73.15625 123.0625 75 125.335938 75 C 127.613281 75 129.457031 73.15625 129.457031 70.878906 C 129.457031 68.605469 127.613281 66.761719 125.335938 66.761719 " clip-rule="nonzero"/></clipPath><clipPath id="ae451c7840"><path d="M 31 16 L 133 16 L 133 125 L 31 125 Z M 31 16 " clip-rule="nonzero"/></clipPath><clipPath id="bdab763e87"><path d="M 64.898438 -4.078125 L 159.492188 50.964844 L 104.453125 145.558594 L 9.859375 90.515625 Z M 64.898438 -4.078125 " clip-rule="nonzero"/></clipPath><clipPath id="07a76c2860"><path d="M 64.898438 -4.078125 L 159.492188 50.964844 L 104.453125 145.558594 L 9.859375 90.515625 Z M 64.898438 -4.078125 " clip-rule="nonzero"/></clipPath><clipPath id="720b38e4b4"><path d="M 64.898438 -4.078125 L 159.492188 50.964844 L 104.453125 145.558594 L 9.859375 90.515625 Z M 64.898438 -4.078125 " clip-rule="nonzero"/></clipPath></defs><g clip-path="url(#5f4feb6fa7)"><g clip-path="url(#89bae83e8b)"><path fill="#ff0000" d="M 121.21875 66.761719 L 129.457031 66.761719 L 129.457031 75 L 121.21875 75 Z M 121.21875 66.761719 " fill-opacity="1" fill-rule="nonzero"/></g></g><g clip-path="url(#ae451c7840)"><g clip-path="url(#bdab763e87)"><g clip-path="url(#07a76c2860)"><g clip-path="url(#720b38e4b4)"><path fill="#61b33a" d="M 132.234375 97.804688 C 126.84375 107.070312 118.828125 114.527344 109.199219 119.234375 C 99.570312 123.941406 88.761719 125.691406 78.136719 124.253906 C 67.515625 122.820312 57.558594 118.269531 49.523438 111.171875 C 41.488281 104.078125 35.738281 94.761719 33 84.398438 C 30.257812 74.035156 30.652344 63.09375 34.132812 52.953125 C 37.613281 42.816406 44.019531 33.9375 52.546875 27.441406 C 61.074219 20.945312 71.332031 17.121094 82.03125 16.457031 C 92.730469 15.792969 103.382812 18.316406 112.648438 23.707031 L 85.394531 70.546875 Z M 132.234375 97.804688 " fill-opacity="1" fill-rule="nonzero"/></g></g></g></g><path stroke-linecap="butt" transform="matrix(0.548252, 0, 0, 0.548252, 38.798217, 60.318249)" fill="none" stroke-linejoin="miter" d="M 22.889891 22.639605 L 22.889891 69.998887 L 29.729806 69.998887 L 29.729806 36.910801 L 52.593645 69.998887 L 58.008577 69.998887 L 58.008577 22.639605 L 51.239912 22.639605 L 51.239912 55.991312 L 28.176575 22.639605 Z M 63.281011 69.998887 L 70.120925 69.998887 L 70.120925 36.64718 L 82.511145 55.050824 L 86.358597 55.050824 L 98.748817 36.64718 L 98.748817 69.998887 L 105.503233 69.998887 L 105.503233 22.639605 L 100.0883 22.639605 L 84.463371 45.631692 L 68.831317 22.639605 L 63.281011 22.639605 Z M 127.690205 22.22636 L 110.711542 22.22636 L 110.711542 69.998887 L 127.690205 69.998887 C 143.186886 69.998887 150.967289 58.22141 150.967289 46.379808 C 150.967289 34.552456 143.186886 22.22636 127.690205 22.22636 Z M 127.690205 63.158973 L 117.551457 63.158973 L 117.551457 29.066274 L 127.690205 29.066274 C 138.662568 29.066274 144.205748 38.000913 144.205748 46.379808 C 144.205748 54.772953 138.662568 63.158973 127.690205 63.158973 Z M 161.312659 33.39822 L 161.312659 25.282947 L 154.686492 26.558306 L 154.686492 33.39822 L 149.207436 33.39822 L 149.207436 38.677779 L 154.686492 38.677779 L 154.686492 59.247397 C 154.686492 67.76879 159.360434 70.198385 166.535219 70.198385 C 167.475707 70.198385 168.501694 70.13426 169.570431 70.063011 L 169.570431 64.512706 C 168.565818 64.583955 167.603955 64.648079 166.79884 64.648079 C 163.492882 64.648079 161.312659 63.643467 161.312659 59.311521 L 161.312659 38.677779 L 169.370933 38.677779 L 169.370933 33.39822 Z M 173.218385 32.849602 L 166.335721 32.849602 L 166.335721 33.39822 L 178.768691 51.253247 L 166.599343 69.671141 L 166.599343 70.063011 L 173.503382 70.063011 L 182.352521 56.276309 L 191.294284 70.063011 L 198.326571 70.063011 L 198.326571 69.870639 L 185.943476 51.253247 L 198.597317 33.063349 L 198.597317 32.849602 L 191.493781 32.849602 L 182.352521 45.980813 Z M 216.587717 22.22636 L 199.609055 22.22636 L 199.609055 69.998887 L 216.587717 69.998887 C 232.084398 69.998887 239.864801 58.22141 239.864801 46.379808 C 239.864801 34.552456 232.084398 22.22636 216.587717 22.22636 Z M 216.587717 63.158973 L 206.448969 63.158973 L 206.448969 29.066274 L 216.587717 29.066274 C 227.56008 29.066274 233.110386 38.000913 233.110386 46.379808 C 233.110386 54.772953 227.56008 63.158973 216.587717 63.158973 Z M 261.987649 22.162236 L 242.301521 22.162236 L 242.301521 69.998887 L 263.690503 69.998887 C 272.746264 69.998887 277.420206 62.831227 277.420206 55.727691 C 277.420206 51.253247 275.453731 46.244434 270.053048 43.950213 C 273.287758 41.520619 274.776864 38.072162 274.776864 34.61658 C 274.776864 28.325284 269.839301 22.162236 261.987649 22.162236 Z M 261.859401 41.520619 L 249.070186 41.520619 L 249.070186 28.65303 L 261.987649 28.65303 C 265.856476 28.65303 267.673328 31.709616 267.673328 34.880202 C 267.673328 38.136286 265.642728 41.520619 261.859401 41.520619 Z M 263.690503 63.37272 L 249.070186 63.37272 L 249.070186 48.275034 L 263.690503 48.275034 C 268.28607 48.275034 270.580292 52.079736 270.580292 55.791815 C 270.580292 59.511018 268.28607 63.37272 263.690503 63.37272 Z M 263.690503 63.37272 " stroke="#ffffff" stroke-width="5.074552" stroke-opacity="1" stroke-miterlimit="4"/><g fill="#000000" fill-opacity="1"><g transform="translate(48.161341, 98.695923)"><g><path d="M 3.191406 -25.964844 L 3.191406 0 L 6.9375 0 L 6.9375 -18.140625 L 19.476562 0 L 22.441406 0 L 22.441406 -25.964844 L 18.734375 -25.964844 L 18.734375 -7.679688 L 6.082031 -25.964844 Z M 3.191406 -25.964844 "/></g></g></g><g fill="#000000" fill-opacity="1"><g transform="translate(70.305467, 98.695923)"><g><path d="M 3.191406 0 L 6.9375 0 L 6.9375 -18.289062 L 13.726562 -8.199219 L 15.839844 -8.199219 L 22.628906 -18.289062 L 22.628906 0 L 26.335938 0 L 26.335938 -25.964844 L 23.371094 -25.964844 L 14.800781 -13.355469 L 6.230469 -25.964844 L 3.191406 -25.964844 Z M 3.191406 0 "/></g></g></g><g fill="#000000" fill-opacity="1"><g transform="translate(96.307238, 98.695923)"><g><path d="M 12.5 -26.1875 L 3.191406 -26.1875 L 3.191406 0 L 12.5 0 C 20.996094 0 25.261719 -6.453125 25.261719 -12.945312 C 25.261719 -19.4375 20.996094 -26.1875 12.5 -26.1875 Z M 12.5 -3.746094 L 6.9375 -3.746094 L 6.9375 -22.441406 L 12.5 -22.441406 C 18.511719 -22.441406 21.550781 -17.546875 21.550781 -12.945312 C 21.550781 -8.347656 18.511719 -3.746094 12.5 -3.746094 Z M 12.5 -3.746094 "/></g></g></g><g fill="#000000" fill-opacity="1"><g transform="translate(119.712514, 98.695923)"><g><path d="M 7.53125 -20.066406 L 7.53125 -24.519531 L 3.894531 -23.816406 L 3.894531 -20.066406 L 0.890625 -20.066406 L 0.890625 -17.175781 L 3.894531 -17.175781 L 3.894531 -5.898438 C 3.894531 -1.222656 6.453125 0.109375 10.386719 0.109375 C 10.90625 0.109375 11.460938 0.0742188 12.054688 0.0351562 L 12.054688 -3.003906 C 11.5 -2.96875 10.980469 -2.929688 10.535156 -2.929688 C 8.71875 -2.929688 7.53125 -3.488281 7.53125 -5.859375 L 7.53125 -17.175781 L 11.945312 -17.175781 L 11.945312 -20.066406 Z M 7.53125 -20.066406 "/></g></g></g><g fill="#000000" fill-opacity="1"><g transform="translate(128.985465, 98.695923)"><g><path d="M 4.785156 -20.363281 L 1 -20.363281 L 1 -20.066406 L 7.828125 -10.273438 L 1.148438 -0.183594 L 1.148438 0.0351562 L 4.933594 0.0351562 L 9.792969 -7.53125 L 14.691406 0.0351562 L 18.546875 0.0351562 L 18.546875 -0.0742188 L 11.757812 -10.273438 L 18.695312 -20.253906 L 18.695312 -20.363281 L 14.800781 -20.363281 L 9.792969 -13.167969 Z M 4.785156 -20.363281 "/></g></g></g><g fill="#000000" fill-opacity="1"><g transform="translate(145.046386, 98.695923)"><g><path d="M 12.5 -26.1875 L 3.191406 -26.1875 L 3.191406 0 L 12.5 0 C 20.996094 0 25.261719 -6.453125 25.261719 -12.945312 C 25.261719 -19.4375 20.996094 -26.1875 12.5 -26.1875 Z M 12.5 -3.746094 L 6.9375 -3.746094 L 6.9375 -22.441406 L 12.5 -22.441406 C 18.511719 -22.441406 21.550781 -17.546875 21.550781 -12.945312 C 21.550781 -8.347656 18.511719 -3.746094 12.5 -3.746094 Z M 12.5 -3.746094 "/></g></g></g><g fill="#000000" fill-opacity="1"><g transform="translate(168.451662, 98.695923)"><g><path d="M 13.984375 -26.226562 L 3.191406 -26.226562 L 3.191406 0 L 14.910156 0 C 19.882812 0 22.441406 -3.933594 22.441406 -7.828125 C 22.441406 -10.273438 21.367188 -13.019531 18.398438 -14.28125 C 20.179688 -15.617188 20.996094 -17.507812 20.996094 -19.402344 C 20.996094 -22.851562 18.289062 -26.226562 13.984375 -26.226562 Z M 13.910156 -15.617188 L 6.898438 -15.617188 L 6.898438 -22.664062 L 13.984375 -22.664062 C 16.097656 -22.664062 17.101562 -20.996094 17.101562 -19.253906 C 17.101562 -17.472656 15.988281 -15.617188 13.910156 -15.617188 Z M 14.910156 -3.636719 L 6.898438 -3.636719 L 6.898438 -11.90625 L 14.910156 -11.90625 C 17.433594 -11.90625 18.695312 -9.832031 18.695312 -7.789062 C 18.695312 -5.75 17.433594 -3.636719 14.910156 -3.636719 Z M 14.910156 -3.636719 "/></g></g></g><g fill="#000000" fill-opacity="1"><g transform="translate(188.770971, 98.695923)"><g/></g></g><path stroke-linecap="butt" transform="matrix(0.548252, 0, 0, 0.548252, 51.183408, 99.340232)" fill="none" stroke-linejoin="miter" d="M 5.885515 4.765857 L 1.53932 4.765857 L 1.53932 16.999329 L 5.885515 16.999329 C 9.85409 16.999329 11.849066 13.985492 11.849066 10.95028 C 11.849066 7.922193 9.85409 4.765857 5.885515 4.765857 Z M 5.885515 15.246601 L 3.284923 15.246601 L 3.284923 6.518585 L 5.885515 6.518585 C 8.69273 6.518585 10.117712 8.805682 10.117712 10.95028 C 10.117712 13.102003 8.69273 15.246601 5.885515 15.246601 Z M 23.647918 16.999329 L 23.647918 7.622947 L 21.952189 7.622947 L 21.966439 8.869806 C 21.132824 7.74407 19.729217 7.466198 18.567856 7.466198 C 15.397271 7.466198 13.559044 9.739045 13.559044 12.268388 C 13.559044 14.847606 15.333147 17.156077 18.603481 17.156077 C 19.771966 17.141827 21.275323 16.757082 21.952189 15.73822 L 21.952189 16.999329 Z M 21.952189 12.304013 C 21.952189 14.555485 20.135337 15.652721 18.567856 15.652721 C 16.494507 15.652721 15.261898 14.035366 15.261898 12.268388 C 15.261898 10.415912 16.508757 8.955305 18.567856 8.955305 C 20.163836 8.955305 21.952189 10.066791 21.952189 12.304013 Z M 28.29336 7.622947 L 28.29336 5.549597 L 26.590506 5.870218 L 26.590506 7.622947 L 25.186899 7.622947 L 25.186899 8.97668 L 26.590506 8.97668 L 26.590506 14.249114 C 26.590506 16.429336 27.787491 17.049204 29.625718 17.049204 C 29.867965 17.049204 30.131587 17.034954 30.402333 17.013579 L 30.402333 15.595722 C 30.145837 15.609972 29.90359 15.631346 29.696967 15.631346 C 28.849103 15.631346 28.29336 15.367725 28.29336 14.263363 L 28.29336 8.97668 L 30.352459 8.97668 L 30.352459 7.622947 Z M 41.773691 16.999329 L 41.773691 7.622947 L 40.077962 7.622947 L 40.092212 8.869806 C 39.258597 7.74407 37.85499 7.466198 36.69363 7.466198 C 33.523044 7.466198 31.684817 9.739045 31.684817 12.268388 C 31.684817 14.847606 33.451795 17.156077 36.729254 17.156077 C 37.890615 17.141827 39.401096 16.757082 40.077962 15.73822 L 40.077962 16.999329 Z M 40.077962 12.304013 C 40.077962 14.555485 38.253985 15.652721 36.69363 15.652721 C 34.620281 15.652721 33.387671 14.035366 33.387671 12.268388 C 33.387671 10.415912 34.63453 8.955305 36.69363 8.955305 C 38.28961 8.955305 40.077962 10.066791 40.077962 12.304013 Z M 45.948889 8.841306 L 45.948889 4.872731 L 44.246035 4.872731 L 44.246035 16.999329 L 45.948889 16.999329 L 45.948889 15.73822 C 46.625755 16.757082 47.908239 17.141827 49.0696 17.156077 C 52.339934 17.156077 53.921664 14.847606 53.921664 12.268388 C 53.921664 9.739045 52.27581 7.466198 49.105224 7.466198 C 47.943864 7.466198 46.761129 7.72982 45.948889 8.841306 Z M 45.948889 12.304013 C 45.948889 10.066791 47.530619 8.955305 49.105224 8.955305 C 51.185698 8.955305 52.225935 10.622534 52.225935 12.304013 C 52.225935 13.999742 51.164323 15.652721 49.08385 15.652721 C 47.530619 15.652721 45.948889 14.555485 45.948889 12.304013 Z M 65.734766 16.999329 L 65.734766 7.622947 L 64.039037 7.622947 L 64.060412 8.869806 C 63.226798 7.74407 61.82319 7.466198 60.66183 7.466198 C 57.484119 7.466198 55.653017 9.739045 55.653017 12.268388 C 55.653017 14.847606 57.419995 17.156077 60.697454 17.156077 C 61.858815 17.141827 63.362171 16.757082 64.039037 15.73822 L 64.039037 16.999329 Z M 64.039037 12.304013 C 64.039037 14.555485 62.222185 15.652721 60.66183 15.652721 C 58.581356 15.652721 57.348746 14.035366 57.348746 12.268388 C 57.348746 10.415912 58.60273 8.955305 60.66183 8.955305 C 62.25781 8.955305 64.039037 10.066791 64.039037 12.304013 Z M 69.339971 10.330413 C 69.339971 9.361425 70.308959 8.955305 71.356321 8.955305 C 72.375183 8.955305 73.258672 9.361425 73.344171 10.187914 L 75.02565 10.187914 C 74.904526 8.228564 73.258672 7.430574 71.406195 7.430574 C 69.582218 7.430574 67.658492 8.192939 67.658492 10.358912 C 67.658492 12.460761 69.653467 12.980879 71.334946 13.045004 C 72.147186 13.080628 73.600668 13.258751 73.600668 14.298988 C 73.600668 15.403349 72.268309 15.681221 71.420445 15.681221 C 70.259084 15.681221 69.290097 15.161102 69.218848 14.120865 L 67.523119 14.120865 C 67.644242 16.336712 69.446845 17.156077 71.38482 17.156077 C 73.151798 17.156077 75.303521 16.514835 75.303521 14.327488 C 75.303521 12.197139 73.294297 11.641396 71.527319 11.527398 C 70.693704 11.470398 69.339971 11.506023 69.339971 10.330413 Z M 86.389883 11.905018 C 86.204635 8.955305 83.910414 7.487573 81.594818 7.487573 C 79.115349 7.487573 76.728504 9.097803 76.728504 12.318263 C 76.728504 15.545847 79.150973 17.170327 81.559193 17.170327 C 83.482919 17.170327 85.406645 16.151465 86.119136 14.106615 L 84.366408 14.106615 C 83.810665 15.161102 82.734803 15.666971 81.573443 15.666971 C 80.169835 15.666971 78.424232 14.555485 78.424232 12.717258 L 86.361383 12.717258 C 86.389883 12.56051 86.411257 12.389512 86.411257 12.197139 C 86.411257 12.097391 86.411257 12.004767 86.389883 11.905018 Z M 84.608655 11.320775 L 78.488357 11.320775 C 78.837477 9.653546 80.226835 8.97668 81.594818 8.97668 C 82.941426 8.97668 84.280909 9.632171 84.608655 11.320775 Z M 102.648929 12.318263 C 102.648929 9.097803 100.148085 7.466198 97.618742 7.466198 C 95.075149 7.466198 92.545806 9.076428 92.545806 12.318263 C 92.545806 15.545847 95.053774 17.170327 97.568868 17.170327 C 100.119586 17.170327 102.648929 15.560097 102.648929 12.318263 Z M 94.241534 12.318263 C 94.241534 10.088166 95.923013 8.97668 97.618742 8.97668 C 99.285971 8.97668 100.96745 10.102416 100.96745 12.318263 C 100.96745 14.51986 99.285971 15.652721 97.604492 15.652721 C 95.923013 15.652721 94.241534 14.53411 94.241534 12.318263 Z M 105.662766 16.999329 L 107.358495 16.999329 L 107.358495 9.026554 L 109.267971 9.026554 L 109.267971 7.558822 L 107.358495 7.558822 C 107.358495 6.390337 107.964113 6.098216 108.868976 6.098216 C 109.061349 6.098216 109.267971 6.11959 109.474594 6.13384 L 109.474594 4.715983 C 109.232347 4.694608 109.011475 4.680358 108.797727 4.680358 C 106.752878 4.680358 105.662766 5.506848 105.662766 7.558822 L 104.223534 7.558822 L 104.223534 9.026554 L 105.662766 9.026554 Z M 115.552143 4.872731 L 115.552143 16.999329 L 117.304871 16.999329 L 117.304871 8.52781 L 123.161547 16.999329 L 124.550905 16.999329 L 124.550905 4.872731 L 122.812427 4.872731 L 122.812427 13.415499 L 116.905876 4.872731 Z M 127.529118 16.999329 L 129.281846 16.999329 L 129.281846 8.456561 L 132.452431 13.173252 L 133.435669 13.173252 L 136.613379 8.456561 L 136.613379 16.999329 L 138.344732 16.999329 L 138.344732 4.872731 L 136.955375 4.872731 L 132.951175 10.757907 L 128.946975 4.872731 L 127.529118 4.872731 Z M 145.654891 4.765857 L 141.30157 4.765857 L 141.30157 16.999329 L 145.654891 16.999329 C 149.623466 16.999329 151.611316 13.985492 151.611316 10.95028 C 151.611316 7.922193 149.623466 4.765857 145.654891 4.765857 Z M 145.654891 15.246601 L 143.054298 15.246601 L 143.054298 6.518585 L 145.654891 6.518585 C 148.462106 6.518585 149.887088 8.805682 149.887088 10.95028 C 149.887088 13.102003 148.462106 15.246601 145.654891 15.246601 Z M 158.273108 10.900406 L 153.592042 10.900406 L 153.592042 12.339638 L 158.273108 12.339638 Z M 163.481418 7.622947 L 163.481418 5.549597 L 161.785689 5.870218 L 161.785689 7.622947 L 160.382082 7.622947 L 160.382082 8.97668 L 161.785689 8.97668 L 161.785689 14.249114 C 161.785689 16.429336 162.982674 17.049204 164.820901 17.049204 C 165.063148 17.049204 165.32677 17.034954 165.597516 17.013579 L 165.597516 15.595722 C 165.34102 15.609972 165.091648 15.631346 164.885025 15.631346 C 164.044286 15.631346 163.481418 15.367725 163.481418 14.263363 L 163.481418 8.97668 L 165.547642 8.97668 L 165.547642 7.622947 Z M 176.968874 16.999329 L 176.968874 7.622947 L 175.273145 7.622947 L 175.287395 8.869806 C 174.45378 7.74407 173.050173 7.466198 171.888813 7.466198 C 168.718227 7.466198 166.88 9.739045 166.88 12.268388 C 166.88 14.847606 168.646978 17.156077 171.924437 17.156077 C 173.085798 17.141827 174.596279 16.757082 175.273145 15.73822 L 175.273145 16.999329 Z M 175.273145 12.304013 C 175.273145 14.555485 173.449168 15.652721 171.888813 15.652721 C 169.815464 15.652721 168.582854 14.035366 168.582854 12.268388 C 168.582854 10.415912 169.829713 8.955305 171.888813 8.955305 C 173.484793 8.955305 175.273145 10.066791 175.273145 12.304013 Z M 181.072823 8.784307 L 181.072823 7.644321 L 179.391344 7.644321 L 179.391344 16.999329 L 181.072823 16.999329 L 181.072823 11.926393 C 181.072823 10.202164 182.390931 8.941055 183.972661 8.941055 C 184.243408 8.941055 184.542654 8.97668 184.834776 9.062179 L 184.834776 7.573072 C 184.45003 7.487573 184.08666 7.430574 183.723289 7.430574 C 182.683052 7.430574 181.749689 7.850944 181.072823 8.784307 Z M 196.063635 16.650209 L 196.063635 7.622947 L 194.382156 7.622947 L 194.382156 8.869806 C 193.69104 7.850944 192.372931 7.466198 191.211571 7.466198 C 187.948362 7.466198 186.238383 9.77467 186.238383 12.339638 C 186.238383 14.883231 188.055235 16.985079 191.211571 16.985079 C 192.372931 16.985079 193.548542 16.742832 194.367906 15.666971 L 194.367906 16.650209 C 194.367906 18.488436 192.665053 19.186677 191.140322 19.186677 C 189.929087 19.186677 188.368731 18.801932 188.368731 17.619196 L 186.687252 17.619196 C 186.687252 19.75667 188.88885 20.690033 191.247195 20.690033 C 193.562791 20.690033 196.063635 19.564297 196.063635 16.650209 Z M 191.190196 15.495973 C 189.131097 15.495973 187.948362 13.985492 187.934112 12.339638 C 187.934112 10.658159 189.131097 8.955305 191.225821 8.955305 C 193.306295 8.955305 194.367906 10.380287 194.367906 12.076016 C 194.367906 13.807369 193.306295 15.495973 191.190196 15.495973 Z M 207.898112 11.905018 C 207.705739 8.955305 205.418643 7.487573 203.095922 7.487573 C 200.616453 7.487573 198.229608 9.097803 198.229608 12.318263 C 198.229608 15.545847 200.652078 17.170327 203.060297 17.170327 C 204.984023 17.170327 206.907749 16.151465 207.62024 14.106615 L 205.867512 14.106615 C 205.318894 15.161102 204.243033 15.666971 203.074547 15.666971 C 201.678065 15.666971 199.925337 14.555485 199.925337 12.717258 L 207.862487 12.717258 C 207.898112 12.56051 207.912362 12.389512 207.912362 12.197139 C 207.912362 12.097391 207.912362 12.004767 207.898112 11.905018 Z M 206.109759 11.320775 L 199.996586 11.320775 C 200.338582 9.653546 201.727939 8.97668 203.095922 8.97668 C 204.449655 8.97668 205.782013 9.632171 206.109759 11.320775 Z M 212.351181 7.622947 L 212.351181 5.549597 L 210.648328 5.870218 L 210.648328 7.622947 L 209.24472 7.622947 L 209.24472 8.97668 L 210.648328 8.97668 L 210.648328 14.249114 C 210.648328 16.429336 211.852437 17.049204 213.68354 17.049204 C 213.925786 17.049204 214.189408 17.034954 214.460155 17.013579 L 214.460155 15.595722 C 214.203658 15.609972 213.961411 15.631346 213.754789 15.631346 C 212.906924 15.631346 212.351181 15.367725 212.351181 14.263363 L 212.351181 8.97668 L 214.41028 8.97668 L 214.41028 7.622947 Z M 225.297144 11.905018 C 225.104772 8.955305 222.817675 7.487573 220.494954 7.487573 C 218.015485 7.487573 215.62864 9.097803 215.62864 12.318263 C 215.62864 15.545847 218.05111 17.170327 220.45933 17.170327 C 222.383056 17.170327 224.306782 16.151465 225.019273 14.106615 L 223.266545 14.106615 C 222.710802 15.161102 221.642065 15.666971 220.47358 15.666971 C 219.077097 15.666971 217.324369 14.555485 217.324369 12.717258 L 225.26152 12.717258 C 225.297144 12.56051 225.311394 12.389512 225.311394 12.197139 C 225.311394 12.097391 225.311394 12.004767 225.297144 11.905018 Z M 223.508792 11.320775 L 217.388493 11.320775 C 217.737614 9.653546 219.126971 8.97668 220.494954 8.97668 C 221.848687 8.97668 223.181046 9.632171 223.508792 11.320775 Z M 236.746876 4.872731 L 235.051147 4.872731 L 235.051147 8.841306 C 234.231782 7.72982 233.056172 7.466198 231.894812 7.466198 C 228.724226 7.466198 226.921624 9.582297 226.921624 12.268388 C 226.921624 15.061353 228.638727 17.156077 231.909061 17.156077 C 233.091797 17.141827 234.374281 16.757082 235.051147 15.73822 L 235.051147 16.999329 L 236.746876 16.999329 Z M 235.051147 12.304013 C 235.051147 14.555485 233.476542 15.652721 231.880562 15.652721 C 229.814338 15.652721 228.617353 14.227739 228.617353 12.304013 C 228.617353 10.622534 229.814338 8.955305 231.894812 8.955305 C 233.476542 8.955305 235.051147 10.066791 235.051147 12.304013 Z M 245.61739 8.784307 L 245.61739 7.466198 L 243.921661 7.466198 L 243.921661 16.999329 L 245.61739 16.999329 L 245.61739 11.905018 C 245.61739 10.066791 246.743126 9.047929 248.232232 9.047929 C 249.799713 9.047929 250.298456 10.415912 250.298456 11.73402 L 250.298456 16.999329 L 251.994185 16.999329 L 251.994185 11.712645 C 251.994185 10.187914 252.8278 9.047929 254.495029 9.047929 C 256.119508 9.047929 256.454379 10.358912 256.454379 11.684146 L 256.454379 16.999329 L 258.150108 16.999329 L 258.150108 11.662771 C 258.150108 9.290176 257.024372 7.466198 254.445154 7.466198 C 253.070047 7.487573 252.01556 8.057566 251.445567 9.097803 C 250.747326 7.779695 249.571715 7.466198 248.253607 7.466198 C 247.163496 7.466198 246.258632 7.850944 245.61739 8.784307 Z M 265.374768 10.850531 L 263.329918 10.850531 L 263.329918 11.684146 L 267.747363 16.999329 L 270.020209 16.999329 L 266.187007 12.446511 C 268.267481 12.076016 269.329093 10.451536 269.329093 8.734433 C 269.329093 6.810707 268.00386 4.715983 265.374768 4.715983 L 260.957323 4.715983 L 260.957323 16.999329 L 262.688676 16.999329 L 262.688676 6.482961 L 265.374768 6.482961 C 266.849624 6.482961 267.576365 7.694196 267.576365 8.734433 C 267.576365 9.788919 266.849624 10.850531 265.374768 10.850531 Z M 271.281319 4.872731 L 271.281319 16.999329 L 273.034047 16.999329 L 273.034047 8.52781 L 278.890723 16.999329 L 280.280081 16.999329 L 280.280081 4.872731 L 278.541603 4.872731 L 278.541603 13.415499 L 272.635052 4.872731 Z M 284.768775 13.935618 L 289.684963 13.935618 L 290.846324 16.999329 L 292.720175 16.999329 L 287.846736 4.715983 L 286.571377 4.715983 L 281.697938 16.999329 L 283.58604 16.999329 Z M 289.043721 12.289763 L 285.402892 12.289763 L 287.226869 7.501823 Z M 295.228144 10.330413 C 295.228144 9.361425 296.197132 8.955305 297.237369 8.955305 C 298.263356 8.955305 299.146845 9.361425 299.232344 10.187914 L 300.913823 10.187914 C 300.792699 8.228564 299.146845 7.430574 297.294368 7.430574 C 295.470391 7.430574 293.546665 8.192939 293.546665 10.358912 C 293.546665 12.460761 295.54164 12.980879 297.223119 13.045004 C 298.035359 13.080628 299.488841 13.258751 299.488841 14.298988 C 299.488841 15.403349 298.156482 15.681221 297.308618 15.681221 C 296.147257 15.681221 295.17827 15.161102 295.10702 14.120865 L 293.411292 14.120865 C 293.532415 16.336712 295.335018 17.156077 297.272993 17.156077 C 299.039971 17.156077 301.191694 16.514835 301.191694 14.327488 C 301.191694 12.197139 299.182469 11.641396 297.415492 11.527398 C 296.581877 11.470398 295.228144 11.506023 295.228144 10.330413 Z M 295.228144 10.330413 " stroke="#ffffff" stroke-width="1.30002" stroke-opacity="1" stroke-miterlimit="4"/><g fill="#000000" fill-opacity="1"><g transform="translate(51.209107, 108.660524)"><g><path d="M 3.203125 -6.707031 L 0.816406 -6.707031 L 0.816406 0 L 3.203125 0 C 5.378906 0 6.46875 -1.652344 6.46875 -3.316406 C 6.46875 -4.980469 5.378906 -6.707031 3.203125 -6.707031 Z M 3.203125 -0.960938 L 1.777344 -0.960938 L 1.777344 -5.75 L 3.203125 -5.75 C 4.742188 -5.75 5.519531 -4.492188 5.519531 -3.316406 C 5.519531 -2.136719 4.742188 -0.960938 3.203125 -0.960938 Z M 3.203125 -0.960938 "/></g></g></g><g fill="#000000" fill-opacity="1"><g transform="translate(58.096705, 108.660524)"><g><path d="M 6.050781 0 L 6.050781 -5.140625 L 5.121094 -5.140625 L 5.128906 -4.457031 C 4.675781 -5.074219 3.90625 -5.226562 3.269531 -5.226562 C 1.53125 -5.226562 0.523438 -3.980469 0.523438 -2.59375 C 0.523438 -1.179688 1.492188 0.0859375 3.289062 0.0859375 C 3.925781 0.0742188 4.75 -0.132812 5.121094 -0.695312 L 5.121094 0 Z M 5.121094 -2.574219 C 5.121094 -1.339844 4.125 -0.742188 3.269531 -0.742188 C 2.128906 -0.742188 1.453125 -1.625 1.453125 -2.59375 C 1.453125 -3.609375 2.136719 -4.410156 3.269531 -4.410156 C 4.140625 -4.410156 5.121094 -3.800781 5.121094 -2.574219 Z M 5.121094 -2.574219 "/></g></g></g><g fill="#000000" fill-opacity="1"><g transform="translate(64.765799, 108.660524)"><g><path d="M 1.929688 -5.140625 L 1.929688 -6.28125 L 0.996094 -6.101562 L 0.996094 -5.140625 L 0.226562 -5.140625 L 0.226562 -4.398438 L 0.996094 -4.398438 L 0.996094 -1.511719 C 0.996094 -0.3125 1.652344 0.0273438 2.660156 0.0273438 C 2.792969 0.0273438 2.9375 0.0195312 3.089844 0.0078125 L 3.089844 -0.769531 C 2.945312 -0.761719 2.8125 -0.75 2.699219 -0.75 C 2.234375 -0.75 1.929688 -0.894531 1.929688 -1.5 L 1.929688 -4.398438 L 3.058594 -4.398438 L 3.058594 -5.140625 Z M 1.929688 -5.140625 "/></g></g></g><g fill="#000000" fill-opacity="1"><g transform="translate(68.033848, 108.660524)"><g><path d="M 6.050781 0 L 6.050781 -5.140625 L 5.121094 -5.140625 L 5.128906 -4.457031 C 4.675781 -5.074219 3.90625 -5.226562 3.269531 -5.226562 C 1.53125 -5.226562 0.523438 -3.980469 0.523438 -2.59375 C 0.523438 -1.179688 1.492188 0.0859375 3.289062 0.0859375 C 3.925781 0.0742188 4.75 -0.132812 5.121094 -0.695312 L 5.121094 0 Z M 5.121094 -2.574219 C 5.121094 -1.339844 4.125 -0.742188 3.269531 -0.742188 C 2.128906 -0.742188 1.453125 -1.625 1.453125 -2.59375 C 1.453125 -3.609375 2.136719 -4.410156 3.269531 -4.410156 C 4.140625 -4.410156 5.121094 -3.800781 5.121094 -2.574219 Z M 5.121094 -2.574219 "/></g></g></g><g fill="#000000" fill-opacity="1"><g transform="translate(74.702942, 108.660524)"><g><path d="M 1.671875 -4.476562 L 1.671875 -6.652344 L 0.742188 -6.652344 L 0.742188 0 L 1.671875 0 L 1.671875 -0.695312 C 2.042969 -0.132812 2.746094 0.0742188 3.382812 0.0859375 C 5.179688 0.0859375 6.042969 -1.179688 6.042969 -2.59375 C 6.042969 -3.980469 5.140625 -5.226562 3.402344 -5.226562 C 2.765625 -5.226562 2.117188 -5.082031 1.671875 -4.476562 Z M 1.671875 -2.574219 C 1.671875 -3.800781 2.535156 -4.410156 3.402344 -4.410156 C 4.542969 -4.410156 5.113281 -3.496094 5.113281 -2.574219 C 5.113281 -1.644531 4.53125 -0.742188 3.390625 -0.742188 C 2.535156 -0.742188 1.671875 -1.339844 1.671875 -2.574219 Z M 1.671875 -2.574219 "/></g></g></g><g fill="#000000" fill-opacity="1"><g transform="translate(81.172532, 108.660524)"><g><path d="M 6.050781 0 L 6.050781 -5.140625 L 5.121094 -5.140625 L 5.128906 -4.457031 C 4.675781 -5.074219 3.90625 -5.226562 3.269531 -5.226562 C 1.53125 -5.226562 0.523438 -3.980469 0.523438 -2.59375 C 0.523438 -1.179688 1.492188 0.0859375 3.289062 0.0859375 C 3.925781 0.0742188 4.75 -0.132812 5.121094 -0.695312 L 5.121094 0 Z M 5.121094 -2.574219 C 5.121094 -1.339844 4.125 -0.742188 3.269531 -0.742188 C 2.128906 -0.742188 1.453125 -1.625 1.453125 -2.59375 C 1.453125 -3.609375 2.136719 -4.410156 3.269531 -4.410156 C 4.140625 -4.410156 5.121094 -3.800781 5.121094 -2.574219 Z M 5.121094 -2.574219 "/></g></g></g><g fill="#000000" fill-opacity="1"><g transform="translate(87.841627, 108.660524)"><g><path d="M 1.359375 -3.65625 C 1.359375 -4.191406 1.890625 -4.410156 2.460938 -4.410156 C 3.019531 -4.410156 3.507812 -4.191406 3.554688 -3.734375 L 4.476562 -3.734375 C 4.410156 -4.808594 3.507812 -5.246094 2.488281 -5.246094 C 1.492188 -5.246094 0.4375 -4.828125 0.4375 -3.640625 C 0.4375 -2.488281 1.53125 -2.203125 2.453125 -2.167969 C 2.898438 -2.148438 3.695312 -2.050781 3.695312 -1.480469 C 3.695312 -0.875 2.964844 -0.722656 2.5 -0.722656 C 1.863281 -0.722656 1.332031 -1.007812 1.292969 -1.578125 L 0.359375 -1.578125 C 0.425781 -0.359375 1.414062 0.0859375 2.480469 0.0859375 C 3.449219 0.0859375 4.628906 -0.265625 4.628906 -1.464844 C 4.628906 -2.632812 3.523438 -2.9375 2.554688 -3.003906 C 2.101562 -3.03125 1.359375 -3.011719 1.359375 -3.65625 Z M 1.359375 -3.65625 "/></g></g></g><g fill="#000000" fill-opacity="1"><g transform="translate(92.791191, 108.660524)"><g><path d="M 5.757812 -2.792969 C 5.652344 -4.410156 4.398438 -5.214844 3.125 -5.214844 C 1.765625 -5.214844 0.457031 -4.332031 0.457031 -2.566406 C 0.457031 -0.796875 1.785156 0.09375 3.105469 0.09375 C 4.160156 0.09375 5.214844 -0.464844 5.605469 -1.585938 L 4.644531 -1.585938 C 4.34375 -1.007812 3.753906 -0.730469 3.117188 -0.730469 C 2.347656 -0.730469 1.386719 -1.339844 1.386719 -2.347656 L 5.738281 -2.347656 C 5.757812 -2.433594 5.765625 -2.527344 5.765625 -2.632812 C 5.765625 -2.6875 5.765625 -2.738281 5.757812 -2.792969 Z M 4.777344 -3.117188 L 1.425781 -3.117188 C 1.613281 -4.027344 2.375 -4.398438 3.125 -4.398438 C 3.867188 -4.398438 4.597656 -4.039062 4.777344 -3.117188 Z M 4.777344 -3.117188 "/></g></g></g><g fill="#000000" fill-opacity="1"><g transform="translate(99.061277, 108.660524)"><g/></g></g><g fill="#000000" fill-opacity="1"><g transform="translate(101.426812, 108.660524)"><g><path d="M 6.035156 -2.566406 C 6.035156 -4.332031 4.664062 -5.226562 3.277344 -5.226562 C 1.882812 -5.226562 0.492188 -4.34375 0.492188 -2.566406 C 0.492188 -0.796875 1.871094 0.09375 3.25 0.09375 C 4.644531 0.09375 6.035156 -0.789062 6.035156 -2.566406 Z M 1.425781 -2.566406 C 1.425781 -3.789062 2.347656 -4.398438 3.277344 -4.398438 C 4.191406 -4.398438 5.113281 -3.78125 5.113281 -2.566406 C 5.113281 -1.359375 4.191406 -0.742188 3.269531 -0.742188 C 2.347656 -0.742188 1.425781 -1.347656 1.425781 -2.566406 Z M 1.425781 -2.566406 "/></g></g></g><g fill="#000000" fill-opacity="1"><g transform="translate(108.019904, 108.660524)"><g><path d="M 1.09375 0 L 2.023438 0 L 2.023438 -4.371094 L 3.070312 -4.371094 L 3.070312 -5.179688 L 2.023438 -5.179688 C 2.023438 -5.816406 2.355469 -5.976562 2.851562 -5.976562 C 2.953125 -5.976562 3.070312 -5.964844 3.183594 -5.957031 L 3.183594 -6.738281 C 3.050781 -6.746094 2.925781 -6.753906 2.8125 -6.753906 C 1.691406 -6.753906 1.09375 -6.300781 1.09375 -5.179688 L 0.304688 -5.179688 L 0.304688 -4.371094 L 1.09375 -4.371094 Z M 1.09375 0 "/></g></g></g><g fill="#000000" fill-opacity="1"><g transform="translate(111.354452, 108.660524)"><g/></g></g><g fill="#000000" fill-opacity="1"><g transform="translate(113.719987, 108.660524)"><g><path d="M 0.816406 -6.652344 L 0.816406 0 L 1.777344 0 L 1.777344 -4.644531 L 4.988281 0 L 5.75 0 L 5.75 -6.652344 L 4.796875 -6.652344 L 4.796875 -1.964844 L 1.558594 -6.652344 Z M 0.816406 -6.652344 "/></g></g></g><g fill="#000000" fill-opacity="1"><g transform="translate(120.284577, 108.660524)"><g><path d="M 0.816406 0 L 1.777344 0 L 1.777344 -4.683594 L 3.515625 -2.101562 L 4.058594 -2.101562 L 5.796875 -4.683594 L 5.796875 0 L 6.746094 0 L 6.746094 -6.652344 L 5.984375 -6.652344 L 3.789062 -3.421875 L 1.597656 -6.652344 L 0.816406 -6.652344 Z M 0.816406 0 "/></g></g></g><g fill="#000000" fill-opacity="1"><g transform="translate(127.837179, 108.660524)"><g><path d="M 3.203125 -6.707031 L 0.816406 -6.707031 L 0.816406 0 L 3.203125 0 C 5.378906 0 6.46875 -1.652344 6.46875 -3.316406 C 6.46875 -4.980469 5.378906 -6.707031 3.203125 -6.707031 Z M 3.203125 -0.960938 L 1.777344 -0.960938 L 1.777344 -5.75 L 3.203125 -5.75 C 4.742188 -5.75 5.519531 -4.492188 5.519531 -3.316406 C 5.519531 -2.136719 4.742188 -0.960938 3.203125 -0.960938 Z M 3.203125 -0.960938 "/></g></g></g><g fill="#000000" fill-opacity="1"><g transform="translate(134.724776, 108.660524)"><g><path d="M 3.230469 -3.34375 L 0.664062 -3.34375 L 0.664062 -2.554688 L 3.230469 -2.554688 Z M 3.230469 -3.34375 "/></g></g></g><g fill="#000000" fill-opacity="1"><g transform="translate(138.885834, 108.660524)"><g><path d="M 1.929688 -5.140625 L 1.929688 -6.28125 L 0.996094 -6.101562 L 0.996094 -5.140625 L 0.226562 -5.140625 L 0.226562 -4.398438 L 0.996094 -4.398438 L 0.996094 -1.511719 C 0.996094 -0.3125 1.652344 0.0273438 2.660156 0.0273438 C 2.792969 0.0273438 2.9375 0.0195312 3.089844 0.0078125 L 3.089844 -0.769531 C 2.945312 -0.761719 2.8125 -0.75 2.699219 -0.75 C 2.234375 -0.75 1.929688 -0.894531 1.929688 -1.5 L 1.929688 -4.398438 L 3.058594 -4.398438 L 3.058594 -5.140625 Z M 1.929688 -5.140625 "/></g></g></g><g fill="#000000" fill-opacity="1"><g transform="translate(142.153883, 108.660524)"><g><path d="M 6.050781 0 L 6.050781 -5.140625 L 5.121094 -5.140625 L 5.128906 -4.457031 C 4.675781 -5.074219 3.90625 -5.226562 3.269531 -5.226562 C 1.53125 -5.226562 0.523438 -3.980469 0.523438 -2.59375 C 0.523438 -1.179688 1.492188 0.0859375 3.289062 0.0859375 C 3.925781 0.0742188 4.75 -0.132812 5.121094 -0.695312 L 5.121094 0 Z M 5.121094 -2.574219 C 5.121094 -1.339844 4.125 -0.742188 3.269531 -0.742188 C 2.128906 -0.742188 1.453125 -1.625 1.453125 -2.59375 C 1.453125 -3.609375 2.136719 -4.410156 3.269531 -4.410156 C 4.140625 -4.410156 5.121094 -3.800781 5.121094 -2.574219 Z M 5.121094 -2.574219 "/></g></g></g><g fill="#000000" fill-opacity="1"><g transform="translate(148.822977, 108.660524)"><g><path d="M 1.632812 -4.503906 L 1.632812 -5.128906 L 0.710938 -5.128906 L 0.710938 0 L 1.632812 0 L 1.632812 -2.785156 C 1.632812 -3.722656 2.355469 -4.417969 3.222656 -4.417969 C 3.371094 -4.417969 3.535156 -4.398438 3.695312 -4.351562 L 3.695312 -5.167969 C 3.488281 -5.214844 3.289062 -5.246094 3.089844 -5.246094 C 2.519531 -5.246094 2.003906 -5.015625 1.632812 -4.503906 Z M 1.632812 -4.503906 "/></g></g></g><g fill="#000000" fill-opacity="1"><g transform="translate(152.813033, 108.660524)"><g><path d="M 5.863281 -0.191406 L 5.863281 -5.140625 L 4.941406 -5.140625 L 4.941406 -4.457031 C 4.5625 -5.015625 3.839844 -5.226562 3.203125 -5.226562 C 1.414062 -5.226562 0.476562 -3.960938 0.476562 -2.554688 C 0.476562 -1.160156 1.472656 -0.0078125 3.203125 -0.0078125 C 3.839844 -0.0078125 4.484375 -0.140625 4.929688 -0.730469 L 4.929688 -0.191406 C 4.929688 0.816406 4 1.195312 3.164062 1.195312 C 2.5 1.195312 1.644531 0.988281 1.644531 0.34375 L 0.722656 0.34375 C 0.722656 1.511719 1.929688 2.023438 3.222656 2.023438 C 4.492188 2.023438 5.863281 1.40625 5.863281 -0.191406 Z M 3.191406 -0.828125 C 2.0625 -0.828125 1.414062 -1.652344 1.40625 -2.554688 C 1.40625 -3.476562 2.0625 -4.410156 3.210938 -4.410156 C 4.351562 -4.410156 4.929688 -3.628906 4.929688 -2.699219 C 4.929688 -1.75 4.351562 -0.828125 3.191406 -0.828125 Z M 3.191406 -0.828125 "/></g></g></g><g fill="#000000" fill-opacity="1"><g transform="translate(159.406126, 108.660524)"><g><path d="M 5.757812 -2.792969 C 5.652344 -4.410156 4.398438 -5.214844 3.125 -5.214844 C 1.765625 -5.214844 0.457031 -4.332031 0.457031 -2.566406 C 0.457031 -0.796875 1.785156 0.09375 3.105469 0.09375 C 4.160156 0.09375 5.214844 -0.464844 5.605469 -1.585938 L 4.644531 -1.585938 C 4.34375 -1.007812 3.753906 -0.730469 3.117188 -0.730469 C 2.347656 -0.730469 1.386719 -1.339844 1.386719 -2.347656 L 5.738281 -2.347656 C 5.757812 -2.433594 5.765625 -2.527344 5.765625 -2.632812 C 5.765625 -2.6875 5.765625 -2.738281 5.757812 -2.792969 Z M 4.777344 -3.117188 L 1.425781 -3.117188 C 1.613281 -4.027344 2.375 -4.398438 3.125 -4.398438 C 3.867188 -4.398438 4.597656 -4.039062 4.777344 -3.117188 Z M 4.777344 -3.117188 "/></g></g></g><g fill="#000000" fill-opacity="1"><g transform="translate(165.676211, 108.660524)"><g><path d="M 1.929688 -5.140625 L 1.929688 -6.28125 L 0.996094 -6.101562 L 0.996094 -5.140625 L 0.226562 -5.140625 L 0.226562 -4.398438 L 0.996094 -4.398438 L 0.996094 -1.511719 C 0.996094 -0.3125 1.652344 0.0273438 2.660156 0.0273438 C 2.792969 0.0273438 2.9375 0.0195312 3.089844 0.0078125 L 3.089844 -0.769531 C 2.945312 -0.761719 2.8125 -0.75 2.699219 -0.75 C 2.234375 -0.75 1.929688 -0.894531 1.929688 -1.5 L 1.929688 -4.398438 L 3.058594 -4.398438 L 3.058594 -5.140625 Z M 1.929688 -5.140625 "/></g></g></g><g fill="#000000" fill-opacity="1"><g transform="translate(168.94426, 108.660524)"><g><path d="M 5.757812 -2.792969 C 5.652344 -4.410156 4.398438 -5.214844 3.125 -5.214844 C 1.765625 -5.214844 0.457031 -4.332031 0.457031 -2.566406 C 0.457031 -0.796875 1.785156 0.09375 3.105469 0.09375 C 4.160156 0.09375 5.214844 -0.464844 5.605469 -1.585938 L 4.644531 -1.585938 C 4.34375 -1.007812 3.753906 -0.730469 3.117188 -0.730469 C 2.347656 -0.730469 1.386719 -1.339844 1.386719 -2.347656 L 5.738281 -2.347656 C 5.757812 -2.433594 5.765625 -2.527344 5.765625 -2.632812 C 5.765625 -2.6875 5.765625 -2.738281 5.757812 -2.792969 Z M 4.777344 -3.117188 L 1.425781 -3.117188 C 1.613281 -4.027344 2.375 -4.398438 3.125 -4.398438 C 3.867188 -4.398438 4.597656 -4.039062 4.777344 -3.117188 Z M 4.777344 -3.117188 "/></g></g></g><g fill="#000000" fill-opacity="1"><g transform="translate(175.214345, 108.660524)"><g><path d="M 5.765625 -6.652344 L 4.835938 -6.652344 L 4.835938 -4.476562 C 4.390625 -5.082031 3.742188 -5.226562 3.105469 -5.226562 C 1.367188 -5.226562 0.378906 -4.066406 0.378906 -2.59375 C 0.378906 -1.0625 1.320312 0.0859375 3.117188 0.0859375 C 3.761719 0.0742188 4.464844 -0.132812 4.835938 -0.695312 L 4.835938 0 L 5.765625 0 Z M 4.835938 -2.574219 C 4.835938 -1.339844 3.972656 -0.742188 3.097656 -0.742188 C 1.964844 -0.742188 1.3125 -1.519531 1.3125 -2.574219 C 1.3125 -3.496094 1.964844 -4.410156 3.105469 -4.410156 C 3.972656 -4.410156 4.835938 -3.800781 4.835938 -2.574219 Z M 4.835938 -2.574219 "/></g></g></g><g fill="#000000" fill-opacity="1"><g transform="translate(181.712437, 108.660524)"><g/></g></g><g fill="#000000" fill-opacity="1"><g transform="translate(184.077972, 108.660524)"><g><path d="M 1.765625 -4.503906 L 1.765625 -5.226562 L 0.835938 -5.226562 L 0.835938 0 L 1.765625 0 L 1.765625 -2.792969 C 1.765625 -3.800781 2.386719 -4.359375 3.203125 -4.359375 C 4.058594 -4.359375 4.332031 -3.609375 4.332031 -2.886719 L 4.332031 0 L 5.265625 0 L 5.265625 -2.898438 C 5.265625 -3.734375 5.71875 -4.359375 6.632812 -4.359375 C 7.523438 -4.359375 7.707031 -3.640625 7.707031 -2.917969 L 7.707031 0 L 8.636719 0 L 8.636719 -2.925781 C 8.636719 -4.226562 8.019531 -5.226562 6.601562 -5.226562 C 5.851562 -5.214844 5.273438 -4.902344 4.960938 -4.332031 C 4.578125 -5.054688 3.933594 -5.226562 3.210938 -5.226562 C 2.613281 -5.226562 2.117188 -5.015625 1.765625 -4.503906 Z M 1.765625 -4.503906 "/></g></g></g><g fill="#000000" fill-opacity="1"><g transform="translate(193.4356, 108.660524)"><g><path d="M 3.238281 -3.371094 L 2.117188 -3.371094 L 2.117188 -2.917969 L 4.542969 0 L 5.785156 0 L 3.6875 -2.5 C 4.828125 -2.699219 5.40625 -3.589844 5.40625 -4.53125 C 5.40625 -5.585938 4.683594 -6.738281 3.238281 -6.738281 L 0.816406 -6.738281 L 0.816406 0 L 1.765625 0 L 1.765625 -5.765625 L 3.238281 -5.765625 C 4.046875 -5.765625 4.445312 -5.101562 4.445312 -4.53125 C 4.445312 -3.953125 4.046875 -3.371094 3.238281 -3.371094 Z M 3.238281 -3.371094 "/></g></g></g><g fill="#000000" fill-opacity="1"><g transform="translate(199.097669, 108.660524)"><g><path d="M 0.816406 -6.652344 L 0.816406 0 L 1.777344 0 L 1.777344 -4.644531 L 4.988281 0 L 5.75 0 L 5.75 -6.652344 L 4.796875 -6.652344 L 4.796875 -1.964844 L 1.558594 -6.652344 Z M 0.816406 -6.652344 "/></g></g></g><g fill="#000000" fill-opacity="1"><g transform="translate(205.66226, 108.660524)"><g><path d="M 1.644531 -1.683594 L 4.34375 -1.683594 L 4.980469 0 L 6.003906 0 L 3.335938 -6.738281 L 2.632812 -6.738281 L -0.0390625 0 L 0.996094 0 Z M 3.992188 -2.585938 L 1.996094 -2.585938 L 2.992188 -5.207031 Z M 3.992188 -2.585938 "/></g></g></g><g fill="#000000" fill-opacity="1"><g transform="translate(211.685341, 108.660524)"><g><path d="M 1.359375 -3.65625 C 1.359375 -4.191406 1.890625 -4.410156 2.460938 -4.410156 C 3.019531 -4.410156 3.507812 -4.191406 3.554688 -3.734375 L 4.476562 -3.734375 C 4.410156 -4.808594 3.507812 -5.246094 2.488281 -5.246094 C 1.492188 -5.246094 0.4375 -4.828125 0.4375 -3.640625 C 0.4375 -2.488281 1.53125 -2.203125 2.453125 -2.167969 C 2.898438 -2.148438 3.695312 -2.050781 3.695312 -1.480469 C 3.695312 -0.875 2.964844 -0.722656 2.5 -0.722656 C 1.863281 -0.722656 1.332031 -1.007812 1.292969 -1.578125 L 0.359375 -1.578125 C 0.425781 -0.359375 1.414062 0.0859375 2.480469 0.0859375 C 3.449219 0.0859375 4.628906 -0.265625 4.628906 -1.464844 C 4.628906 -2.632812 3.523438 -2.9375 2.554688 -3.003906 C 2.101562 -3.03125 1.359375 -3.011719 1.359375 -3.65625 Z M 1.359375 -3.65625 "/></g></g></g></svg>